#!OML:ASF C:\Vicon Data\Big\jianyuan-12\jianyuan\Session 1\Capture.male.ASF
:FULLY-SPECIFIED
:DEGREES
84
root -9.410910 17.364591 -17.350979 1.516252 -15.278308 6.699868
lowerback -7.925891 0.127327 -3.458272 
upperback 2.776346 0.623213 -0.842307 
thorax 7.351813 0.173566 1.147528 
lowerneck 2.418412 -11.334457 -5.434483 
upperneck -1.241235 -15.103636 13.154884 
head 0.681345 -7.584289 4.619943 
rclavicle 0.000000 0.000000 
rhumerus -26.153296 -20.369455 -86.678475 
rradius 40.168833 
rwrist 27.378262 
rhand -19.882968 -4.772727 
rfingers 0.000000 
rthumb 6.452795 -34.654393 
lclavicle 0.000000 0.000000 
lhumerus -50.580626 39.293727 58.494531 
lradius 25.169096 
lwrist -59.086947 
lhand -6.647859 3.534025 
lfingers 0.000000 
lthumb 19.209488 32.605341 
rfemur -9.007476 2.984243 24.519764 
rtibia 29.929360 
rfoot -28.284343 -2.539244 
rtoes 5.025181 
lfemur -30.856459 -1.468074 -18.596757 
ltibia 42.668032 
lfoot -13.973347 7.132926 
ltoes -27.547935 
85
root -9.432024 17.366925 -17.280879 1.757082 -15.828714 6.648448
lowerback -8.132695 0.247792 -3.366546 
upperback 2.695999 0.778399 -0.828117 
thorax 7.378732 0.252956 1.134419 
lowerneck 2.494173 -11.319029 -5.351227 
upperneck -1.414980 -15.067859 12.999230 
head 0.595971 -7.575241 4.576238 
rclavicle 0.000000 0.000000 
rhumerus -25.897480 -20.147188 -86.808561 
rradius 40.309447 
rwrist 27.292131 
rhand -19.875400 -5.040142 
rfingers 0.000000 
rthumb 6.460066 -34.921657 
lclavicle 0.000000 0.000000 
lhumerus -51.011850 39.396921 58.118283 
lradius 25.217618 
lwrist -58.793761 
lhand -6.516574 3.658195 
lfingers 0.000000 
lthumb 19.335732 32.716876 
rfemur -8.884430 3.087812 24.529242 
rtibia 29.613904 
rfoot -28.080315 -2.216095 
rtoes 4.715276 
lfemur -30.991826 -1.569714 -18.391085 
ltibia 40.880313 
lfoot -13.866128 7.359142 
ltoes -27.874231 
86
root -9.451731 17.371988 -17.209100 1.831346 -16.173809 6.657370
lowerback -8.184181 0.324317 -3.340203 
upperback 2.662729 0.877288 -0.813062 
thorax 7.368461 0.302328 1.149981 
lowerneck 2.460755 -11.337384 -5.419363 
upperneck -1.430937 -15.096241 12.927457 
head 0.598742 -7.589564 4.562586 
rclavicle 0.000000 0.000000 
rhumerus -25.725488 -19.978063 -86.849898 
rradius 40.518050 
rwrist 27.115406 
rhand -19.839601 -4.733623 
rfingers 0.000000 
rthumb 6.494657 -34.614031 
lclavicle 0.000000 0.000000 
lhumerus -51.442939 39.529127 57.744949 
lradius 25.210447 
lwrist -58.756247 
lhand -6.355336 3.682277 
lfingers 0.000000 
lthumb 19.490758 32.725354 
rfemur -8.549333 2.950025 24.472741 
rtibia 29.281491 
rfoot -27.909612 -1.830613 
rtoes 4.608643 
lfemur -30.921147 -1.909072 -18.217795 
ltibia 39.079717 
lfoot -14.026017 7.418758 
ltoes -27.461065 
87
root -9.473720 17.373390 -17.137746 1.844037 -16.259915 6.583945
lowerback -8.179956 0.321072 -3.206421 
upperback 2.678471 0.860056 -0.836614 
thorax 7.385359 0.300318 1.047627 
lowerneck 2.505690 -11.368109 -5.296743 
upperneck -1.577296 -15.123389 12.699757 
head 0.542666 -7.609741 4.659685 
rclavicle 0.000000 0.000000 
rhumerus -25.487992 -19.850794 -87.042771 
rradius 40.674948 
rwrist 26.984304 
rhand -19.962847 -4.317408 
rfingers 0.000000 
rthumb 6.375643 -34.201432 
lclavicle 0.000000 0.000000 
lhumerus -51.723474 39.540635 57.394599 
lradius 25.197784 
lwrist -58.652552 
lhand -6.164564 3.683446 
lfingers 0.000000 
lthumb 19.674160 32.707853 
rfemur -8.068973 3.041147 24.586615 
rtibia 28.906460 
rfoot -27.919776 -1.897848 
rtoes 4.508265 
lfemur -30.797761 -2.348091 -17.985620 
ltibia 37.277643 
lfoot -14.052566 7.366919 
ltoes -27.275020 
88
root -9.496071 17.376369 -17.063726 1.834814 -16.431607 6.568949
lowerback -8.213898 0.330947 -3.152211 
upperback 2.708658 0.870400 -0.846877 
thorax 7.437571 0.307129 1.008315 
lowerneck 2.510096 -11.379638 -5.163770 
upperneck -1.691845 -15.128678 12.315871 
head 0.500697 -7.616899 4.847928 
rclavicle 0.000000 0.000000 
rhumerus -25.307909 -19.584852 -87.215230 
rradius 40.977805 
rwrist 26.549282 
rhand -20.087411 -4.385655 
rfingers 0.000000 
rthumb 6.255433 -34.273247 
lclavicle 0.000000 0.000000 
lhumerus -51.984690 39.524486 57.140792 
lradius 25.244128 
lwrist -58.494700 
lhand -5.918385 3.718486 
lfingers 0.000000 
lthumb 19.910808 32.718462 
rfemur -7.576950 3.050963 24.602782 
rtibia 28.524917 
rfoot -27.867494 -1.824243 
rtoes 4.404885 
lfemur -30.611306 -2.648766 -17.856290 
ltibia 35.447525 
lfoot -13.911381 7.264651 
ltoes -26.453478 
89
root -9.517947 17.380016 -16.991628 1.828872 -16.607864 6.610993
lowerback -8.208267 0.334298 -3.192455 
upperback 2.696596 0.878424 -0.842627 
thorax 7.420579 0.309413 1.036439 
lowerneck 2.533502 -11.376737 -5.193249 
upperneck -1.778429 -15.121030 12.279304 
head 0.466505 -7.616340 4.845776 
rclavicle 0.000000 0.000000 
rhumerus -25.181476 -19.449531 -87.226420 
rradius 41.141957 
rwrist 26.479304 
rhand -20.065371 -4.429939 
rfingers 0.000000 
rthumb 6.276707 -34.316919 
lclavicle 0.000000 0.000000 
lhumerus -52.488291 39.730153 56.602585 
lradius 25.206191 
lwrist -58.791422 
lhand -5.927450 3.645844 
lfingers 0.000000 
lthumb 19.902074 32.646756 
rfemur -7.128339 2.956742 24.547178 
rtibia 28.152770 
rfoot -27.778524 -1.635678 
rtoes 4.310615 
lfemur -30.431344 -3.021977 -17.759660 
ltibia 33.602249 
lfoot -13.717713 7.140078 
ltoes -25.211028 
90
root -9.539581 17.381527 -16.922285 1.869554 -16.789046 6.580399
lowerback -8.229001 0.356001 -3.131064 
upperback 2.697419 0.901339 -0.843991 
thorax 7.433190 0.323215 1.004050 
lowerneck 2.492968 -11.382505 -5.181303 
upperneck -1.836709 -15.124924 12.216191 
head 0.448055 -7.618809 4.820797 
rclavicle 0.000000 0.000000 
rhumerus -24.974479 -19.303222 -87.343916 
rradius 41.298220 
rwrist 26.284130 
rhand -20.084325 -4.488202 
rfingers 0.000000 
rthumb 6.258383 -34.375783 
lclavicle 0.000000 0.000000 
lhumerus -52.865646 39.907389 56.118526 
lradius 25.087899 
lwrist -59.096796 
lhand -6.128958 3.588631 
lfingers 0.000000 
lthumb 19.708358 32.609513 
rfemur -6.738695 2.793043 24.565036 
rtibia 27.801227 
rfoot -27.645848 -1.422426 
rtoes 4.085940 
lfemur -30.267127 -3.428755 -17.552021 
ltibia 31.755074 
lfoot -13.791347 6.994456 
ltoes -25.071034 
91
root -9.563145 17.382557 -16.851038 1.952783 -16.975460 6.465996
lowerback -8.315678 0.368226 -3.010773 
upperback 2.706021 0.904866 -0.813367 
thorax 7.493132 0.328383 0.970178 
lowerneck 2.492335 -11.377446 -5.181134 
upperneck -1.937724 -15.111739 12.170951 
head 0.409577 -7.615001 4.809499 
rclavicle 0.000000 0.000000 
rhumerus -24.778917 -19.057919 -87.497890 
rradius 41.537173 
rwrist 25.984646 
rhand -20.135475 -4.735880 
rfingers 0.000000 
rthumb 6.208986 -34.624859 
lclavicle 0.000000 0.000000 
lhumerus -53.176128 40.017387 55.742800 
lradius 25.027818 
lwrist -59.234393 
lhand -6.095696 3.606495 
lfingers 0.000000 
lthumb 19.740364 32.624147 
rfemur -6.354112 3.031363 24.714743 
rtibia 27.476029 
rfoot -27.661404 -1.533096 
rtoes 3.971597 
lfemur -30.106178 -3.789486 -17.273626 
ltibia 29.912256 
lfoot -13.641112 6.800924 
ltoes -25.604794 
